<mxfile host="app.diagrams.net" modified="2024-05-28T11:45:34.058Z" agent="Mozilla/5.0 (Windows NT 10.0; Win64; x64) AppleWebKit/537.36 (KHTML, like Gecko) Chrome/125.0.0.0 Safari/537.36" etag="PRjq8jHUnejK1qvBKDXu" version="24.4.9" type="github">
  <diagram name="Page-1" id="NFl5pYgBjKw4TBNZ6vLH">
    <mxGraphModel dx="1323" dy="912" grid="1" gridSize="10" guides="1" tooltips="1" connect="1" arrows="1" fold="1" page="1" pageScale="1" pageWidth="850" pageHeight="1100" math="0" shadow="0">
      <root>
        <mxCell id="0" />
        <mxCell id="1" parent="0" />
        <mxCell id="VRu2-1xwG2TXeV9Tw0rX-3" style="edgeStyle=orthogonalEdgeStyle;rounded=0;orthogonalLoop=1;jettySize=auto;html=1;" edge="1" parent="1" source="VRu2-1xwG2TXeV9Tw0rX-1">
          <mxGeometry relative="1" as="geometry">
            <mxPoint x="530" y="520" as="targetPoint" />
          </mxGeometry>
        </mxCell>
        <mxCell id="VRu2-1xwG2TXeV9Tw0rX-4" value="SocketEvent(message)" style="edgeLabel;html=1;align=center;verticalAlign=middle;resizable=0;points=[];" vertex="1" connectable="0" parent="VRu2-1xwG2TXeV9Tw0rX-3">
          <mxGeometry x="-0.0378" relative="1" as="geometry">
            <mxPoint as="offset" />
          </mxGeometry>
        </mxCell>
        <mxCell id="VRu2-1xwG2TXeV9Tw0rX-1" value="customer sends msg&lt;div&gt;emit(message) to client&lt;/div&gt;" style="rounded=1;whiteSpace=wrap;html=1;" vertex="1" parent="1">
          <mxGeometry x="60" y="490" width="140" height="60" as="geometry" />
        </mxCell>
        <mxCell id="VRu2-1xwG2TXeV9Tw0rX-6" style="edgeStyle=orthogonalEdgeStyle;rounded=0;orthogonalLoop=1;jettySize=auto;html=1;" edge="1" parent="1" source="VRu2-1xwG2TXeV9Tw0rX-2">
          <mxGeometry relative="1" as="geometry">
            <mxPoint x="600" y="690" as="targetPoint" />
          </mxGeometry>
        </mxCell>
        <mxCell id="VRu2-1xwG2TXeV9Tw0rX-2" value="Socket Server" style="rounded=1;whiteSpace=wrap;html=1;" vertex="1" parent="1">
          <mxGeometry x="540" y="490" width="120" height="60" as="geometry" />
        </mxCell>
        <mxCell id="VRu2-1xwG2TXeV9Tw0rX-10" style="edgeStyle=orthogonalEdgeStyle;rounded=0;orthogonalLoop=1;jettySize=auto;html=1;" edge="1" parent="1" source="VRu2-1xwG2TXeV9Tw0rX-5">
          <mxGeometry relative="1" as="geometry">
            <mxPoint x="125" y="830" as="targetPoint" />
          </mxGeometry>
        </mxCell>
        <mxCell id="VRu2-1xwG2TXeV9Tw0rX-5" value="client receives msg" style="rounded=1;whiteSpace=wrap;html=1;" vertex="1" parent="1">
          <mxGeometry x="60" y="670" width="130" height="60" as="geometry" />
        </mxCell>
        <mxCell id="VRu2-1xwG2TXeV9Tw0rX-8" style="edgeStyle=orthogonalEdgeStyle;rounded=0;orthogonalLoop=1;jettySize=auto;html=1;exitX=0;exitY=0.5;exitDx=0;exitDy=0;" edge="1" parent="1" source="VRu2-1xwG2TXeV9Tw0rX-7">
          <mxGeometry relative="1" as="geometry">
            <mxPoint x="200" y="700" as="targetPoint" />
          </mxGeometry>
        </mxCell>
        <mxCell id="VRu2-1xwG2TXeV9Tw0rX-7" value="server creating event emit(message) to client" style="ellipse;whiteSpace=wrap;html=1;" vertex="1" parent="1">
          <mxGeometry x="540" y="660" width="120" height="80" as="geometry" />
        </mxCell>
        <mxCell id="VRu2-1xwG2TXeV9Tw0rX-12" value="" style="edgeStyle=orthogonalEdgeStyle;rounded=0;orthogonalLoop=1;jettySize=auto;html=1;" edge="1" parent="1" source="VRu2-1xwG2TXeV9Tw0rX-9" target="VRu2-1xwG2TXeV9Tw0rX-11">
          <mxGeometry relative="1" as="geometry" />
        </mxCell>
        <mxCell id="VRu2-1xwG2TXeV9Tw0rX-9" value="on Message seen" style="rhombus;whiteSpace=wrap;html=1;" vertex="1" parent="1">
          <mxGeometry x="62.5" y="840" width="135" height="120" as="geometry" />
        </mxCell>
        <mxCell id="VRu2-1xwG2TXeV9Tw0rX-14" value="" style="edgeStyle=orthogonalEdgeStyle;rounded=0;orthogonalLoop=1;jettySize=auto;html=1;" edge="1" parent="1" source="VRu2-1xwG2TXeV9Tw0rX-11" target="VRu2-1xwG2TXeV9Tw0rX-13">
          <mxGeometry relative="1" as="geometry" />
        </mxCell>
        <mxCell id="VRu2-1xwG2TXeV9Tw0rX-11" value="trigger event emit(messageseen) to customer" style="whiteSpace=wrap;html=1;rotation=0;" vertex="1" parent="1">
          <mxGeometry x="50" y="1050" width="160" height="100" as="geometry" />
        </mxCell>
        <mxCell id="VRu2-1xwG2TXeV9Tw0rX-18" value="" style="edgeStyle=orthogonalEdgeStyle;rounded=0;orthogonalLoop=1;jettySize=auto;html=1;" edge="1" parent="1" source="VRu2-1xwG2TXeV9Tw0rX-13" target="VRu2-1xwG2TXeV9Tw0rX-17">
          <mxGeometry relative="1" as="geometry" />
        </mxCell>
        <mxCell id="VRu2-1xwG2TXeV9Tw0rX-13" value="server receives event and emit event(messageseen) to customer." style="whiteSpace=wrap;html=1;" vertex="1" parent="1">
          <mxGeometry x="540" y="1050" width="190" height="100" as="geometry" />
        </mxCell>
        <mxCell id="VRu2-1xwG2TXeV9Tw0rX-17" value="customer listens for event(messageseen)" style="whiteSpace=wrap;html=1;" vertex="1" parent="1">
          <mxGeometry x="540" y="880" width="190" height="100" as="geometry" />
        </mxCell>
      </root>
    </mxGraphModel>
  </diagram>
</mxfile>
